<?xml version="1.0" encoding="UTF-8"?>
<svg version="1.1" xmlns="http://www.w3.org/2000/svg" width="309" height="319">
<path d="M0 0 C101.97 0 203.94 0 309 0 C309 105.27 309 210.54 309 319 C207.03 319 105.06 319 0 319 C0 213.73 0 108.46 0 0 Z " fill="#000000" transform="translate(0,0)"/>
<path d="M0 0 C9.27774041 6.92084013 13.33202994 15.15074677 16.16015625 26.234375 C16.67915091 30.62098659 16.70550518 34.94768485 16.67431641 39.36132812 C16.6814415 40.61532913 16.68856659 41.86933014 16.69590759 43.16133118 C16.70851531 45.86741995 16.71409793 48.5723702 16.70714188 51.27836609 C16.69621113 55.58859588 16.71391376 59.8984429 16.73495483 64.20861816 C16.76511832 71.05620249 16.77689727 77.90367129 16.78053129 84.75131655 C16.78716637 96.93645796 16.81702269 109.12151356 16.86562765 121.30655813 C16.88176973 125.55822962 16.88732587 129.80973481 16.88430202 134.06143332 C16.36625674 166.42095015 16.36625674 166.42095015 21.57421875 198.1796875 C22.16015625 201.234375 22.16015625 201.234375 22.16015625 211.234375 C13.25015625 211.234375 4.34015625 211.234375 -4.83984375 211.234375 C-6.22376893 207.08259946 -7.14185081 204.07283127 -7.65625 199.890625 C-7.78064453 198.8903125 -7.90503906 197.89 -8.03320312 196.859375 C-8.15501953 195.828125 -8.27683594 194.796875 -8.40234375 193.734375 C-8.59086914 192.23390625 -8.59086914 192.23390625 -8.78320312 190.703125 C-10.30024352 178.24909706 -10.98718987 165.86218204 -10.98168945 153.31933594 C-10.98702245 151.30479299 -10.99236142 149.29025004 -10.99792612 147.27570772 C-11.00307314 145.14152513 -11.00601992 143.00734855 -11.00850868 140.87316132 C-11.01449367 136.39979825 -11.03109879 131.9265116 -11.04985046 127.45318604 C-11.0561849 125.91303638 -11.06251056 124.37288669 -11.06882763 122.83273697 C-11.07199344 122.06234227 -11.07515925 121.29194757 -11.078421 120.49820757 C-11.12029694 110.10721616 -11.1535055 99.71626575 -11.16577148 89.32519531 C-11.17417064 82.28148478 -11.19671454 75.23796982 -11.23512715 68.19435716 C-11.25479595 64.47962848 -11.26732245 60.76519146 -11.26229286 57.05040741 C-11.25675357 52.91061193 -11.28212656 48.77154268 -11.30981445 44.63183594 C-11.30321304 43.41808289 -11.29661163 42.20432983 -11.28981018 40.95379639 C-11.38452996 32.30935372 -12.56195132 24.90249272 -18.46484375 18.296875 C-29.15954292 11.76122551 -40.79683771 11.98427651 -52.71484375 14.859375 C-60.84901405 16.91487808 -67.85915713 20.04210035 -75.83984375 23.234375 C-76.16984375 63.164375 -76.49984375 103.094375 -76.83984375 144.234375 C-85.41984375 144.234375 -93.99984375 144.234375 -102.83984375 144.234375 C-103.16984375 99.684375 -103.49984375 55.134375 -103.83984375 9.234375 C-109.77984375 8.244375 -115.71984375 7.254375 -121.83984375 6.234375 C-122.49984375 5.904375 -123.15984375 5.574375 -123.83984375 5.234375 C-123.83984375 2.924375 -123.83984375 0.614375 -123.83984375 -1.765625 C-108.65984375 -1.765625 -93.47984375 -1.765625 -77.83984375 -1.765625 C-77.00254725 3.25815399 -76.75364845 7.23504749 -76.83984375 12.234375 C-76.06125 11.7496875 -75.28265625 11.265 -74.48046875 10.765625 C-67.35326863 6.49587378 -60.18608321 2.9409845 -52.46484375 -0.140625 C-51.6337207 -0.47384766 -50.80259766 -0.80707031 -49.94628906 -1.15039062 C-34.14141431 -7.30550778 -15.05245502 -9.35861027 0 0 Z " fill="#F9FAF9" transform="translate(190.83984375,70.765625)"/>
</svg>
